<?xml version="1.0" encoding="utf-8"?>
<!-- Generator: Adobe Illustrator 19.2.0, SVG Export Plug-In . SVG Version: 6.00 Build 0)  -->
<svg version="1.1" id="Layer_1" xmlns="http://www.w3.org/2000/svg" xmlns:xlink="http://www.w3.org/1999/xlink" x="0px" y="0px"
	 viewBox="0 0 32 20" style="enable-background:new 0 0 32 20;" xml:space="preserve">
<g>
	<path d="M25.7,3.6L25.7,3.6c0.2,0.8,0.7,3.4,0.7,5.9c0,2.8-0.5,5.5-0.7,6.1c-0.1-2.3-1.6-3.8-4.5-4.7c-0.1,0-0.1,0-0.2,0
		c-0.2,0-0.4,0.1-0.5,0.3c-0.1,0.1-0.1,0.4,0,0.7c0.1,0.2,0.2,0.5,0.2,0.7c0,1.7-2.9,3.1-6.3,3.1c-3.4,0-6.3-1.4-6.3-3.1
		c0-0.5,0.3-1,0.8-1.4C9,10.9,9.1,10.7,9,10.4C8.9,10.2,8.7,10,8.4,10c0,0,0,0,0,0c-1.5,0.1-2.3,0.2-2.7,0.6
		c-0.1-0.3-0.1-0.7-0.1-1.1c0-0.3,0-0.6,0.1-1C6.1,9,7.4,9.2,10.2,9.2h2.6C21.5,9.2,25.5,7.5,25.7,3.6 M25.9,3.1h-0.4
		c-0.2,0-0.3,0.1-0.3,0.3c0,2.9-2.2,5.3-12.4,5.3c-1,0-1.2,0-2.6,0C7.5,8.7,6.1,8.5,5.9,8C5.8,7.9,5.6,7.8,5.5,7.8
		C5.3,7.8,5.2,7.9,5.2,8C5.1,8.6,5,9.1,5,9.5c0,0.6,0.1,1.1,0.2,1.6c0,0.1,0.1,0.2,0.2,0.2c0.1,0,0.3,0,0.4-0.2
		c0.2-0.4,1-0.6,2.5-0.6c0,0,0,0,0,0c0.2,0,0.2,0.1,0,0.2c-0.6,0.5-0.9,1.1-0.9,1.8c0,2,3.1,3.6,6.8,3.6c3.8,0,6.8-1.6,6.8-3.6
		c0-0.3-0.1-0.7-0.2-1c-0.1-0.2-0.1-0.2,0-0.2c0,0,0,0,0.1,0c3.2,0.9,4.1,2.6,4.1,4.4c0,0.2,0.1,0.3,0.3,0.3h0.4
		c0.2,0,0.2-0.1,0.3-0.3c0.1-0.6,0.7-3.4,0.7-6.3c0-2.7-0.6-5.4-0.7-6.1C26.1,3.2,26,3.1,25.9,3.1L25.9,3.1z"/>
</g>
<g>
	<path d="M13.2,11L13.2,11c0.3,0,1.7,0,2.2,0.1c2.4,0.2,3.7,0.7,3.7,1.5c0,0.8-1.9,1.7-4.7,1.7c-2.8,0-4.7-0.9-4.7-1.7
		C9.7,11.6,11.5,11,13.2,11 M13.2,10.5c-1.8,0-4,0.7-4,2.1c0,1.3,2.3,2.2,5.2,2.2c2.9,0,5.2-1,5.2-2.2c0-0.9-0.8-1.8-4.2-2
		c-0.4,0-1.7,0-2.1-0.1C13.3,10.5,13.3,10.5,13.2,10.5L13.2,10.5z"/>
</g>
</svg>
